PathFileType	4	(X/Y/Z)	/Users/niels/Desktop/University/Third Semester/Perception and Action/Exam/Gymnastics Motion Tracking/Code for Gym Tracking/Analyzed Data/Webcam_Backflip/id8_3_pure_Sports2D/id8_3_pure_Sports2D_px_person00.trc
DataRate	CameraRate	NumFrames	NumMarkers	Units	OrigDataRate	OrigDataStartFrame	OrigNumFrames
29.81132075471698	29.81132075471698	10	22	m	29.81132075471698	59	159
Frame#	Time	Hip			RHip			RKnee			RAnkle			RBigToe			RSmallToe			RHeel			LHip			LKnee			LAnkle			LBigToe			LSmallToe			LHeel			Neck			Head			Nose			RShoulder			RElbow			RWrist			LShoulder			LElbow			LWrist		
		X1	Y1	Z1	X2	Y2	Z2	X3	Y3	Z3	X4	Y4	Z4	X5	Y5	Z5	X6	Y6	Z6	X7	Y7	Z7	X8	Y8	Z8	X9	Y9	Z9	X10	Y10	Z10	X11	Y11	Z11	X12	Y12	Z12	X13	Y13	Z13	X14	Y14	Z14	X15	Y15	Z15	X16	Y16	Z16	X17	Y17	Z17	X18	Y18	Z18	X19	Y19	Z19	X20	Y20	Z20	X21	Y21	Z21	X22	Y22	Z22
59	1.9791139240506328	0.8626410029473844	-0.40221512043017393	0.0	0.8589282946069737	-0.40040143544958895	0.0	0.870762087408905	-0.49770943111493604	0.0	0.8620859767757828	-0.598019959431676	0.0	0.8828037122436581	-0.6372768952299168	0.0	0.8729321038561978	-0.636065336822519	0.0	0.8523510840227633	-0.610085148167234	0.0	0.8656051875454677	-0.39980186282631386	0.0	0.8697479899359312	-0.49798849532813627	0.0	0.8613617744841114	-0.59334720149034	0.0	0.8809082464359516	-0.6268913872456873	0.0	0.883126630608397	-0.6244201824655198	0.0	0.8519323826056575	-0.6049642529300143	0.0	0.8762051069211805	-0.2766704381097337	0.0	0.9092234146744885	-0.21420967623097154	0.0	0.9115228962275621	-0.25517990724800016	0.0	0.865948317401072	-0.28319228574188005	0.0	0.8436313203047734	-0.3249027223070658	0.0	0.8332829182708142	-0.3638516271507766	0.0	0.8775630777719217	-0.28903167371798194	0.0	0.8954712397189079	-0.31734461791828167	0.0	0.9498799396958164	-0.3261496058992496	0.0
60	2.0126582278481013	0.8605134608918033	-0.409953890071368	0.0	0.8581054934882266	-0.40845751027568167	0.0	0.8682017980341936	-0.5056113869190283	0.0	0.8581708170955163	-0.6056215291701234	0.0	0.8778369645104943	-0.6451296979898644	0.0	0.8685074393445315	-0.6442002093824396	0.0	0.848659457406609	-0.6189092101054994	0.0	0.8626457057105062	-0.40747071657175427	0.0	0.8651393015594125	-0.505236852974241	0.0	0.8541259794778538	-0.600400562666361	0.0	0.8755752177687088	-0.6338898763074258	0.0	0.8758662995851819	-0.6312004365880541	0.0	0.8443966063433306	-0.6129130614572289	0.0	0.8745124193964912	-0.2830934764365804	0.0	0.9072762731524476	-0.219799520372825	0.0	0.9086437320208808	-0.2615559972942614	0.0	0.8652088221263251	-0.29132928010032777	0.0	0.8380860722307779	-0.33806852654778985	0.0	0.8229800849653229	-0.38613084935090985	0.0	0.8745634627552172	-0.2961105461994811	0.0	0.8889736745539083	-0.3314795662894061	0.0	0.9400838427577172	-0.34740639225619124	0.0
61	2.0462025316455694	0.8581728612300445	-0.4215170601012781	0.0	0.8571685773762097	-0.4205828679091045	0.0	0.86507300128613	-0.5175820077361442	0.0	0.8537505707804302	-0.6169616958244448	0.0	0.8727671991626409	-0.6566324844514212	0.0	0.8637879624756207	-0.6561199984689271	0.0	0.8446639934743627	-0.6314528914033407	0.0	0.8596632176347597	-0.41916122066587896	0.0	0.8604161082529544	-0.5163824387434597	0.0	0.8474287244071096	-0.6111387382695015	0.0	0.8704668114945514	-0.6449533111860649	0.0	0.8688791281789892	-0.6419187320370893	0.0	0.8372065876235592	-0.6246426099043036	0.0	0.8725436376694916	-0.2929742996605727	0.0	0.904026574625263	-0.22891573236159357	0.0	0.9051013309133722	-0.2708895099550492	0.0	0.8639942615706865	-0.30365848759366687	0.0	0.8345199803223601	-0.3545099966427596	0.0	0.816990269508931	-0.40915021239570687	0.0	0.8714363484113908	-0.3067102789017361	0.0	0.8826118585288775	-0.34817889345094954	0.0	0.9291140519850029	-0.371001929771101	0.0
62	2.079746835443038	0.8556287211041994	-0.43706103884376246	0.0	0.8559795416699526	-0.436834633618975	0.0	0.8613351026398246	-0.5336642726045895	0.0	0.8490034359516638	-0.6323129460650648	0.0	0.8678208931470914	-0.6717059584461729	0.0	0.8590566626977797	-0.6716859951483422	0.0	0.8404814985587215	-0.6478956011980362	0.0	0.8565305601012958	-0.43500217190911666	0.0	0.8556341152048275	-0.5316013107393323	0.0	0.8414481643696159	-0.6259286317062762	0.0	0.8657932197028949	-0.6601629781206496	0.0	0.8625819919395886	-0.656727706515588	0.0	0.8306537140836942	-0.6404155861292476	0.0	0.870374161329541	-0.30681790603997217	0.0	0.899714264664102	-0.2421429289938358	0.0	0.9012214226539975	-0.28359987306742956	0.0	0.8623240807762711	-0.32022921665114973	0.0	0.8321923993868042	-0.37432502087944036	0.0	0.8140317144708279	-0.4334477979146979	0.0	0.8684683131510547	-0.32134578474748865	0.0	0.8763852897480161	-0.3677961165362508	0.0	0.9174683185393983	-0.397047989087246	0.0
63	2.113291139240506	0.8530114110531342	-0.45673768345243293	0.0	0.8544349982964587	-0.45718197334094196	0.0	0.8570782826869047	-0.5537680731887877	0.0	0.8441251354053533	-0.6517977331087569	0.0	0.8632351871000598	-0.6901729132563864	0.0	0.8546348407019472	-0.690667215486606	0.0	0.8361738290813852	-0.6683246831107706	0.0	0.8532392714602883	-0.45503213744910703	0.0	0.8509686362274802	-0.5509952957876012	0.0	0.8362576109419919	-0.6450068874137574	0.0	0.8616673128309151	-0.6793624549367807	0.0	0.8573011317341069	-0.6755805925803415	0.0	0.8248832742606387	-0.6603520686478946	0.0	0.8680163192926493	-0.32506000548804137	0.0	0.8947014334999063	-0.26006930642069637	0.0	0.8972295851609292	-0.300235846080161	0.0	0.8602742476266808	-0.34099370132866524	0.0	0.8306060624194611	-0.3975769397907538	0.0	0.8132251112727218	-0.4594524950090173	0.0	0.8657643235778012	-0.340337608158898	0.0	0.8703087429271849	-0.39064836471283076	0.0	0.905684057170574	-0.4257584556877721	0.0
64	2.1468354430379746	0.8505072039643103	-0.4804601348412416	0.0	0.8524956869355806	-0.4813821384691587	0.0	0.8525770787357422	-0.5775820252462542	0.0	0.8391801652495882	-0.6751288919191145	0.0	0.8590721365582366	-0.7116239442220296	0.0	0.8506225200267796	-0.7126020205389589	0.0	0.831670537986637	-0.692421942642152	0.0	0.8500287958854619	-0.4790642581525029	0.0	0.8467433394950866	-0.5744519574117298	0.0	0.8318137981823001	-0.6682330276132157	0.0	0.858007524371206	-0.7020794355739924	0.0	0.8531153164941867	-0.6981213688548819	0.0	0.8199184980462219	-0.6841398541602294	0.0	0.8654977375994544	-0.3477735945499502	0.0	0.8894192651384591	-0.2828744072107231	0.0	0.8933367730057533	-0.32119176302015356	0.0	0.8579330888759754	-0.36571197453182835	0.0	0.8294666091948297	-0.4242255967816457	0.0	0.8140153901002359	-0.4872463322886469	0.0	0.8632250178372357	-0.3636193547305008	0.0	0.8643279948409638	-0.41666476484384857	0.0	0.8941348880620829	-0.4571834248764596	0.0
65	2.180379746835443	0.8482509376718228	-0.5076726889040144	0.0	0.850191142542857	-0.5088176476795452	0.0	0.8483055724986978	-0.6044406720949039	0.0	0.8340814956264736	-0.7014384279871385	0.0	0.8551965141056487	-0.7352697414935768	0.0	0.8468810341483155	-0.736641952193398	0.0	0.8268218877057013	-0.7192265919409301	0.0	0.847253240849882	-0.5064821974604046	0.0	0.843360569802561	-0.6013865367470973	0.0	0.8279281230634913	-0.6948568927692645	0.0	0.8546043728238618	-0.7273871445806414	0.0	0.8498021055105459	-0.7234590836804325	0.0	0.8156270964327088	-0.7108580979505409	0.0	0.8629162225614281	-0.3744851245766089	0.0	0.8843211357634195	-0.3100635626739118	0.0	0.8898268792208148	-0.3463427797958566	0.0	0.8553703009388287	-0.3938252340045005	0.0	0.8286225511656353	-0.45388177378374944	0.0	0.8159757431375164	-0.516485274662147	0.0	0.8606274839510826	-0.3906120038105527	0.0	0.8583308218132644	-0.445201731325022	0.0	0.8830638358174254	-0.4908970056792074	0.0
66	2.213924050632911	0.8462470212267643	-0.5371702967277142	0.0	0.8475739826614892	-0.5383141035028687	0.0	0.8448364035642004	-0.6331719582740037	0.0	0.8287687638094005	-0.7292311169647943	0.0	0.8513963097834747	-0.7598742546843326	0.0	0.8431818930383642	-0.761497343645986	0.0	0.8215896078236085	-0.7471015978043352	0.0	0.8451279890413986	-0.5360428082501787	0.0	0.8411782413496187	-0.6305235172398831	0.0	0.8243714945420065	-0.7233473740815017	0.0	0.851299016283771	-0.7538064711697874	0.0	0.84697405066154	-0.750023419897637	0.0	0.8117993921241227	-0.7389097380515605	0.0	0.860384621659078	-0.40410022918669597	0.0	0.879809825976239	-0.3403927551307618	0.0	0.8869992889197881	-0.37479200505181476	0.0	0.8526064640343692	-0.42430004510651664	0.0	0.8279921627301747	-0.48556894784239096	0.0	0.8186796906215287	-0.5464273962956261	0.0	0.8578360824502769	-0.42016858156761333	0.0	0.8523001017495274	-0.4751621906468722	0.0	0.8727723274964028	-0.525762108425868	0.0
67	2.2474683544303797	0.8443601685967471	-0.5670924836382617	0.0	0.8446819250432531	-0.5681058925198029	0.0	0.8426871280153816	-0.6620564603486058	0.0	0.8234156207571955	-0.7565139037310973	0.0	0.8474989987243661	-0.7838235472697541	0.0	0.8393272973460446	-0.7855170173670109	0.0	0.8162178567255756	-0.7739357649150661	0.0	0.8435780966664583	-0.5658999992272591	0.0	0.8404255612726839	-0.6599017728237522	0.0	0.8210597585974609	-0.751492458634328	0.0	0.8480745975873153	-0.7794372493108848	0.0	0.8443034506887475	-0.7757806396011713	0.0	0.8083728188477547	-0.7661527328616351	0.0	0.8579726590488433	-0.43487059641360326	0.0	0.8761681903971875	-0.3718936135033554	0.0	0.885006676085022	-0.4048372348937534	0.0	0.8496473066630824	-0.45548810606842566	0.0	0.8274772210422344	-0.5176465152295874	0.0	0.8216761260780158	-0.57595382977744	0.0	0.8549434632314378	-0.45059899729385844	0.0	0.8464732823426402	-0.5051850432508431	0.0	0.8636716695834129	-0.5599400813864299	0.0
68	2.281012658227848	0.8424126692188746	-0.5951703765681843	0.0	0.8415883387065884	-0.59604301996869	0.0	0.8421770609144912	-0.6889633145684099	0.0	0.8184163590116507	-0.7810714701504102	0.0	0.843486843487524	-0.8052882231435883	0.0	0.8352660729152034	-0.8068676151696865	0.0	0.8111533445467807	-0.7975028798709162	0.0	0.842276812597935	-0.5938883975662508	0.0	0.8411560198719175	-0.6871329577146554	0.0	0.8180830703309415	-0.7768409204676849	0.0	0.8449965441096356	-0.8022812215847204	0.0	0.841643954838767	-0.798673156314242	0.0	0.8054869843080034	-0.790291555259041	0.0	0.8557445801419946	-0.4644888494770549	0.0	0.8735212719462835	-0.40210777384114954	0.0	0.8837766241827701	-0.4341564093628654	0.0	0.8465841183818031	-0.48517508704261425	0.0	0.8269275008015984	-0.5479245607482014	0.0	0.8245274780742544	-0.6035674310990378	0.0	0.8521905316813624	-0.47977098002652874	0.0	0.8413409200297084	-0.5337089819824121	0.0	0.856103110938875	-0.5912103226220212	0.0
